<svg xmlns="http://www.w3.org/2000/svg" width="180" height="47.655" viewBox="0 0 180 47.655">
  <g id="Group_64" data-name="Group 64" transform="translate(-53.209 -373.315)">
    <path id="Path_43" data-name="Path 43" d="M67.217,374.414c6.89,0,10.649,2.264,12.913,7.083.627,1.349.338,2.024-1.06,2.6l-3.661,1.59c-1.3.579-1.783.338-2.506-.964-1.06-2.12-2.939-3.18-5.685-3.18-4,0-5.686,1.012-5.686,3.325,0,1.2.674,2.072,2.216,2.6a19.2,19.2,0,0,0,5.011.964,24.5,24.5,0,0,1,6.794,1.542,10.5,10.5,0,0,1,2.987,1.831,9.989,9.989,0,0,1,2.7,7.228,9.647,9.647,0,0,1-3.855,8c-2.554,2.023-6.072,3.035-10.456,3.035-7.083,0-11.613-2.6-13.541-7.807-.433-1.4-.1-1.975,1.253-2.506l3.518-1.253c1.4-.53,1.927-.338,2.554,1.156q1.518,3.326,6.216,3.325c4.289,0,6.409-1.253,6.409-3.806,0-2.169-2.313-3.035-6.505-3.47-1.542-.193-2.747-.385-3.662-.53a20.493,20.493,0,0,1-3.421-.915,9.894,9.894,0,0,1-3.277-1.735,9.542,9.542,0,0,1-2.987-7.324C53.484,378.8,58.495,374.414,67.217,374.414Z" transform="translate(0 -0.376)" fill="#fff"/>
    <path id="Path_44" data-name="Path 44" d="M125.927,388.324c6.6,0,9.927,3.324,9.927,9.975V412.32c0,1.349-.434,1.783-1.783,1.783h-3.71c-1.349,0-1.783-.434-1.783-1.783v-13.83c0-2.361-1.2-3.565-3.662-3.565a11.337,11.337,0,0,0-3.324.482,13.493,13.493,0,0,1,.289,2.939V412.32c0,1.349-.434,1.783-1.783,1.783h-3.711c-1.349,0-1.782-.434-1.782-1.783v-13.83c0-2.361-1.205-3.565-3.662-3.565a12.566,12.566,0,0,0-2.843.385c-.145,0-.192.1-.192.29v16.72c0,1.349-.434,1.783-1.783,1.783h-3.711c-1.349,0-1.783-.434-1.783-1.783V392.854c0-1.59.386-2.169,1.928-2.8a24.377,24.377,0,0,1,9.4-1.734,11.418,11.418,0,0,1,5.879,1.349A22.281,22.281,0,0,1,125.927,388.324Z" transform="translate(-15.447 -4.699)" fill="#fff"/>
    <path id="Path_45" data-name="Path 45" d="M160.081,398.842c0-6.629,4-10.518,11.468-10.518,7.517,0,11.516,3.889,11.516,10.518v6.431c0,6.63-4,10.469-11.516,10.469-7.469,0-11.468-3.888-11.468-10.469Zm15.708-.1c0-2.492-1.4-3.739-4.24-3.739q-4.192,0-4.193,3.739v6.58q0,3.738,4.193,3.739c2.843,0,4.24-1.247,4.24-3.739Z" transform="translate(-34.949 -5.13)" fill="#fff"/>
    <path id="Path_46" data-name="Path 46" d="M200.129,398.842c0-6.629,4-10.518,11.468-10.518,7.518,0,11.517,3.889,11.517,10.518v6.431c0,6.63-4,10.469-11.517,10.469-7.469,0-11.468-3.888-11.468-10.469Zm15.709-.1c0-2.492-1.4-3.739-4.241-3.739q-4.192,0-4.192,3.739v6.58q0,3.738,4.192,3.739c2.843,0,4.241-1.247,4.241-3.739Z" transform="translate(-48.046 -5.13)" fill="#fff"/>
    <path id="Path_47" data-name="Path 47" d="M254.084,373.315c1.349,0,1.83.434,1.83,1.832v2.795c0,1.4-.482,1.831-1.83,1.831-3.132,0-4.386,1.156-4.386,4v.144h4.433c1.3,0,1.783.434,1.783,1.783v2.891c0,1.35-.482,1.783-1.783,1.783H249.7V407.19c0,1.349-.433,1.783-1.83,1.783h-3.662c-1.349,0-1.783-.434-1.783-1.783V390.373H240.3c-1.3,0-1.734-.433-1.734-1.783V385.7c0-1.349.434-1.783,1.734-1.783h2.121v-.144c0-6.891,3.662-10.36,11.034-10.457Z" transform="translate(-60.713)" fill="#fff"/>
    <path id="Path_48" data-name="Path 48" d="M289.675,389.422c1.3,0,1.735.434,1.735,1.783v23.659c0,6.7-3.47,10.7-10.987,10.7-5.011,0-8.432-1.493-10.312-4.481a1.722,1.722,0,0,1,.723-2.843l2.747-1.4c1.349-.723,1.975-.53,2.795.627a4.511,4.511,0,0,0,3.9,1.831c2.554,0,3.855-1.3,3.855-3.9v-1.975a22.934,22.934,0,0,1-4.481.337q-10.409,0-10.409-9.975V391.2c0-1.349.434-1.783,1.783-1.783h3.711c1.349,0,1.783.434,1.783,1.783V403.54c0,2.41,1.349,3.614,4.1,3.614a18.44,18.44,0,0,0,3.518-.337V391.2c0-1.349.433-1.783,1.783-1.783Z" transform="translate(-70.392 -4.591)" fill="#fff"/>
    <path id="Path_49" data-name="Path 49" d="M313.579,415.632c2.747,0,3.661.915,3.661,3.662v.916c0,2.747-.915,3.614-3.661,3.614h-.819c-2.747,0-3.614-.867-3.614-3.614v-.916c0-2.747.867-3.662,3.614-3.662Z" transform="translate(-84.032 -13.804)" fill="#c1d96c"/>
  </g>
</svg>
