<svg xmlns="http://www.w3.org/2000/svg" width="109" height="19.593" viewBox="0 0 109 19.593">
    <g id="Group_64" data-name="Group 64">
        <path id="Path_43" data-name="Path 43" d="M58.968,374.414c2.833,0,4.378.931,5.309,2.912.258.555.139.832-.436,1.07l-1.505.654c-.535.238-.733.139-1.03-.4a2.377,2.377,0,0,0-2.337-1.307c-1.644,0-2.338.416-2.338,1.367,0,.5.277.852.911,1.07a7.891,7.891,0,0,0,2.06.4,10.073,10.073,0,0,1,2.793.634,4.318,4.318,0,0,1,1.228.753,4.107,4.107,0,0,1,1.109,2.972,3.966,3.966,0,0,1-1.585,3.289,6.769,6.769,0,0,1-4.3,1.248c-2.912,0-4.774-1.07-5.567-3.21-.178-.574-.04-.812.515-1.03l1.446-.515c.574-.218.792-.139,1.05.475a2.518,2.518,0,0,0,2.556,1.367c1.763,0,2.635-.515,2.635-1.565,0-.892-.951-1.248-2.675-1.427-.634-.079-1.129-.158-1.506-.218a8.427,8.427,0,0,1-1.407-.376,4.067,4.067,0,0,1-1.347-.713,3.923,3.923,0,0,1-1.228-3.011C53.322,376.217,55.382,374.414,58.968,374.414Z" transform="translate(-53.209 -374.117)" fill="#fff"/>
        <path id="Path_44" data-name="Path 44" d="M111.031,388.324c2.714,0,4.081,1.367,4.081,4.1v5.765c0,.555-.178.733-.733.733h-1.525c-.555,0-.733-.178-.733-.733V392.5a1.313,1.313,0,0,0-1.506-1.466,4.66,4.66,0,0,0-1.367.2,5.547,5.547,0,0,1,.119,1.208v5.745c0,.555-.178.733-.733.733h-1.526c-.554,0-.733-.178-.733-.733V392.5a1.314,1.314,0,0,0-1.506-1.466,5.164,5.164,0,0,0-1.169.158c-.06,0-.079.04-.079.119v6.874c0,.555-.179.733-.733.733h-1.526c-.555,0-.733-.178-.733-.733v-8a1.01,1.01,0,0,1,.793-1.149,10.022,10.022,0,0,1,3.863-.713,4.7,4.7,0,0,1,2.417.555A9.161,9.161,0,0,1,111.031,388.324Z" transform="translate(-87.484 -384.085)" fill="#fff"/>
        <path id="Path_45" data-name="Path 45" d="M160.081,392.648c0-2.725,1.644-4.324,4.715-4.324,3.09,0,4.735,1.6,4.735,4.324v2.644c0,2.726-1.644,4.3-4.735,4.3-3.071,0-4.715-1.6-4.715-4.3Zm6.458-.041c0-1.025-.574-1.537-1.743-1.537q-1.723,0-1.724,1.537v2.705q0,1.537,1.724,1.537c1.169,0,1.743-.513,1.743-1.537Z" transform="translate(-130.511 -384.263)" fill="#fff"/>
        <path id="Path_46" data-name="Path 46" d="M200.129,392.648c0-2.725,1.644-4.324,4.715-4.324,3.091,0,4.735,1.6,4.735,4.324v2.644c0,2.726-1.644,4.3-4.735,4.3-3.071,0-4.715-1.6-4.715-4.3Zm6.458-.041c0-1.025-.574-1.537-1.743-1.537q-1.723,0-1.723,1.537v2.705q0,1.537,1.723,1.537c1.169,0,1.743-.513,1.743-1.537Z" transform="translate(-159.479 -384.263)" fill="#fff"/>
        <path id="Path_47" data-name="Path 47" d="M244.947,373.315c.554,0,.753.179.753.753v1.149c0,.574-.2.753-.753.753-1.288,0-1.8.475-1.8,1.644v.059h1.823c.535,0,.733.178.733.733V379.6c0,.555-.2.733-.733.733h-1.823v6.914c0,.555-.178.733-.753.733h-1.506c-.555,0-.733-.178-.733-.733v-6.914h-.872c-.535,0-.713-.178-.713-.733v-1.188c0-.555.178-.733.713-.733h.872v-.059c0-2.833,1.506-4.259,4.537-4.3Z" transform="translate(-187.322 -373.315)" fill="#fff"/>
        <path id="Path_48" data-name="Path 48" d="M277.644,389.422c.535,0,.713.178.713.733v9.727c0,2.754-1.427,4.4-4.517,4.4-2.06,0-3.467-.614-4.239-1.842a.708.708,0,0,1,.3-1.169l1.129-.575c.555-.3.812-.218,1.149.258a1.855,1.855,0,0,0,1.6.753,1.412,1.412,0,0,0,1.585-1.6v-.812a9.429,9.429,0,0,1-1.842.139q-4.279,0-4.279-4.1v-5.171c0-.555.178-.733.733-.733H271.5c.555,0,.733.178.733.733v5.072c0,.991.555,1.486,1.684,1.486a7.582,7.582,0,0,0,1.446-.139v-6.419c0-.555.178-.733.733-.733Z" transform="translate(-209.365 -384.687)" fill="#fff"/>
        <path id="Path_49" data-name="Path 49" d="M310.969,415.632c1.129,0,1.505.376,1.505,1.506v.376c0,1.129-.376,1.486-1.505,1.486h-.337c-1.129,0-1.486-.357-1.486-1.486v-.376c0-1.129.357-1.506,1.486-1.506Z" transform="translate(-238.47 -403.909)" fill="#53a687"/>
    </g>
    <text id="v.2.3" transform="translate(80 15.831)" fill="#53a687" font-size="13" font-family="SegoeUI-Bold, Segoe UI" font-weight="700"><tspan x="0" y="0">v.2.3</tspan></text>
</svg>
