<svg xmlns="http://www.w3.org/2000/svg" width="90.281" height="23.902" viewBox="0 0 90.281 23.902">
  <g id="Group_79" data-name="Group 79" transform="translate(-53.209 -373.315)">
    <path id="Path_62" data-name="Path 62" d="M60.372,374.414c3.524,0,5.445,1.158,6.6,3.622.32.69.173,1.035-.542,1.331l-1.872.813c-.665.3-.912.173-1.282-.493a2.956,2.956,0,0,0-2.907-1.626c-2.045,0-2.908.518-2.908,1.7,0,.616.345,1.06,1.133,1.33a9.815,9.815,0,0,0,2.563.493,12.528,12.528,0,0,1,3.474.789,5.372,5.372,0,0,1,1.528.936,5.108,5.108,0,0,1,1.38,3.7,4.933,4.933,0,0,1-1.971,4.091,8.419,8.419,0,0,1-5.347,1.552c-3.622,0-5.938-1.331-6.924-3.992-.221-.715-.049-1.01.641-1.281l1.8-.641c.715-.271.985-.173,1.306.591a3.132,3.132,0,0,0,3.179,1.7c2.193,0,3.278-.641,3.278-1.946,0-1.109-1.183-1.552-3.327-1.774-.789-.1-1.4-.2-1.873-.271a10.478,10.478,0,0,1-1.75-.468,5.059,5.059,0,0,1-1.676-.887,4.879,4.879,0,0,1-1.528-3.745C53.349,376.656,55.912,374.414,60.372,374.414Z" transform="translate(0 -0.729)" fill="#fff"/>
    <path id="Path_63" data-name="Path 63" d="M113.566,388.324c3.376,0,5.076,1.7,5.076,5.1v7.17c0,.69-.222.912-.912.912h-1.9c-.69,0-.912-.222-.912-.912v-7.072a1.634,1.634,0,0,0-1.873-1.823,5.8,5.8,0,0,0-1.7.246,6.9,6.9,0,0,1,.148,1.5V400.6c0,.69-.222.912-.912.912h-1.9c-.69,0-.911-.222-.911-.912v-7.072A1.634,1.634,0,0,0,105.9,391.7a6.425,6.425,0,0,0-1.454.2c-.074,0-.1.049-.1.148v8.55c0,.69-.222.912-.912.912h-1.9c-.69,0-.912-.222-.912-.912V390.64a1.256,1.256,0,0,1,.986-1.429,12.466,12.466,0,0,1,4.8-.887,5.839,5.839,0,0,1,3.006.69A11.394,11.394,0,0,1,113.566,388.324Z" transform="translate(-31.46 -9.957)" fill="#fff"/>
    <path id="Path_64" data-name="Path 64" d="M160.081,393.523c0-3.277,2.045-5.2,5.864-5.2,3.844,0,5.889,1.922,5.889,5.2V396.7c0,3.277-2.045,5.175-5.889,5.175-3.819,0-5.864-1.922-5.864-5.175Zm8.033-.049c0-1.232-.715-1.848-2.168-1.848q-2.144,0-2.144,1.848v3.253q0,1.848,2.144,1.848c1.454,0,2.168-.616,2.168-1.848Z" transform="translate(-70.902 -9.957)" fill="#fff"/>
    <path id="Path_65" data-name="Path 65" d="M200.129,393.523c0-3.277,2.045-5.2,5.864-5.2,3.844,0,5.889,1.922,5.889,5.2V396.7c0,3.277-2.045,5.175-5.889,5.175-3.819,0-5.864-1.922-5.864-5.175Zm8.033-.049c0-1.232-.715-1.848-2.169-1.848q-2.144,0-2.144,1.848v3.253q0,1.848,2.144,1.848c1.454,0,2.169-.616,2.169-1.848Z" transform="translate(-97.471 -9.957)" fill="#fff"/>
    <path id="Path_66" data-name="Path 66" d="M246.5,373.315c.69,0,.936.222.936.937v1.429c0,.715-.246.936-.936.936-1.6,0-2.243.591-2.243,2.045v.074h2.267c.665,0,.912.222.912.912v1.478c0,.69-.246.912-.912.912H244.26v8.6c0,.69-.221.912-.936.912h-1.873c-.69,0-.912-.222-.912-.912v-8.6h-1.084c-.665,0-.887-.221-.887-.912v-1.478c0-.69.222-.912.887-.912h1.084v-.074c0-3.524,1.873-5.3,5.643-5.347Z" transform="translate(-122.972)" fill="#fff"/>
    <path id="Path_67" data-name="Path 67" d="M279.692,389.422c.665,0,.887.222.887.912v12.1c0,3.425-1.774,5.47-5.618,5.47-2.563,0-4.312-.764-5.273-2.292a.881.881,0,0,1,.37-1.454l1.4-.715c.69-.37,1.01-.271,1.429.32a2.307,2.307,0,0,0,2,.936,1.756,1.756,0,0,0,1.971-2v-1.01a11.728,11.728,0,0,1-2.291.172q-5.323,0-5.323-5.1v-6.431c0-.69.222-.912.912-.912h1.9c.69,0,.912.222.912.912v6.308c0,1.232.69,1.848,2.094,1.848a9.432,9.432,0,0,0,1.8-.172v-7.984c0-.69.221-.912.912-.912Z" transform="translate(-143.323 -10.686)" fill="#fff"/>
    <path id="Path_68" data-name="Path 68" d="M311.413,415.632c1.4,0,1.872.468,1.872,1.873v.468c0,1.4-.468,1.848-1.872,1.848h-.419c-1.4,0-1.848-.444-1.848-1.848V417.5c0-1.4.444-1.873,1.848-1.873Z" transform="translate(-169.796 -28.074)" fill="#53a687"/>
  </g>
</svg>
