<svg xmlns="http://www.w3.org/2000/svg" width="23.988" height="23.07" viewBox="0 0 23.988 23.07">
    <g id="Group_89" data-name="Group 89" transform="translate(-321.784 -543.293)">
        <path id="Path_69" data-name="Path 69" d="M369.4,225.424l3.881,2.041a1.971,1.971,0,0,0,2.86-2.078l-.741-4.322a1.97,1.97,0,0,1,.567-1.744l3.14-3.061a1.971,1.971,0,0,0-1.093-3.361l-4.34-.631a1.972,1.972,0,0,1-1.484-1.079l-1.941-3.932a1.971,1.971,0,0,0-3.535,0l-1.941,3.932a1.971,1.971,0,0,1-1.484,1.079l-4.339.631a1.971,1.971,0,0,0-1.093,3.361L361,219.32a1.971,1.971,0,0,1,.567,1.744l-.741,4.322a1.971,1.971,0,0,0,2.86,2.078l3.881-2.041A1.972,1.972,0,0,1,369.4,225.424Z" transform="translate(-34.707 337.886)" fill="#f2b885" stroke="#f2b885" stroke-linecap="round" stroke-linejoin="round" stroke-width="1.5"/>
    </g>
</svg>
