<svg xmlns="http://www.w3.org/2000/svg" xmlns:xlink="http://www.w3.org/1999/xlink" width="48.305" height="55.851" viewBox="0 0 48.305 55.851">
  <defs>
    <linearGradient id="linear-gradient" x1="-0.074" y1="-0.052" x2="1" y2="1.08" gradientUnits="objectBoundingBox">
      <stop offset="0" stop-color="#53a687"/>
      <stop offset="1" stop-color="#c1d96c"/>
    </linearGradient>
    <filter id="Path_13" x="0" y="0" width="48.305" height="55.851" filterUnits="userSpaceOnUse">
      <feOffset dy="10" input="SourceAlpha"/>
      <feGaussianBlur stdDeviation="5" result="blur"/>
      <feFlood flood-color="#53a687" flood-opacity="0.302"/>
      <feComposite operator="in" in2="blur"/>
      <feComposite in="SourceGraphic"/>
    </filter>
    <linearGradient id="linear-gradient-2" x1="0" y1="0.017" x2="0.911" y2="0.984" xlink:href="#linear-gradient"/>
  </defs>
  <g id="Group_83" data-name="Group 83" transform="translate(-233.607 -215.341)">
    <g transform="matrix(1, 0, 0, 1, 233.61, 215.34)" filter="url(#Path_13)">
      <path id="Path_13-2" data-name="Path 13" d="M176.882,729.157l1.342-3.991h10.847l.835,3.991,2.737,2.848-3.572,19.012h-11.3l-3.431-19.012Z" transform="translate(-159.34 -720.17)" fill="url(#linear-gradient)"/>
    </g>
    <path id="Path_11" data-name="Path 11" d="M168.038,182.381v-1.075a4.217,4.217,0,0,0-4.213-4.213H156.5a4.217,4.217,0,0,0-4.213,4.213v1.075a4.21,4.21,0,0,0-2.742,4.716l2.921,16.247a4.21,4.21,0,0,0,4.146,3.467h7.1a4.21,4.21,0,0,0,4.146-3.467L170.78,187.1a4.21,4.21,0,0,0-2.742-4.716ZM156.5,179.9h7.326a1.406,1.406,0,0,1,1.4,1.4v.833H155.1v-.833A1.406,1.406,0,0,1,156.5,179.9Zm11.516,6.7-2.921,16.247A1.4,1.4,0,0,1,163.712,204h-7.1a1.4,1.4,0,0,1-1.382-1.155L152.31,186.6a1.4,1.4,0,0,1,1.382-1.652h12.943a1.4,1.4,0,0,1,1.382,1.652Z" transform="translate(97.632 41.56)" fill="url(#linear-gradient-2)"/>
  </g>
</svg>
