<svg id="Group_13" data-name="Group 13" xmlns="http://www.w3.org/2000/svg" width="22.453" height="31.691" viewBox="0 0 22.453 31.691">
  <path id="Path_2" data-name="Path 2" d="M285.255,189.366a6.136,6.136,0,1,1,6.137-6.136A6.143,6.143,0,0,1,285.255,189.366Zm0-9.306a3.169,3.169,0,1,0,3.17,3.169A3.173,3.173,0,0,0,285.255,180.06Z" transform="translate(-274.029 -177.093)" fill="#53a687"/>
  <path id="Path_3" data-name="Path 3" d="M288.543,218.153H274.992a4.45,4.45,0,0,1-4.366-5.311l1.326-6.725a7.434,7.434,0,0,1,7.277-5.983h5.078a7.434,7.434,0,0,1,7.277,5.983l1.326,6.725a4.45,4.45,0,0,1-4.366,5.311ZM279.229,203.1a4.46,4.46,0,0,0-4.367,3.59l-1.326,6.725a1.483,1.483,0,0,0,1.456,1.77h13.551a1.484,1.484,0,0,0,1.456-1.77l-1.326-6.725a4.46,4.46,0,0,0-4.367-3.59Z" transform="translate(-270.541 -186.462)" fill="#53a687"/>
</svg>
